# xmcd
# Copyright (C) 1995-1998 Ti Kan
#
# Track frame offsets:
#       150
#       14700
#       29383
#       47624
#       64175
#
# Disc length: 1067 seconds
#
# Revision: 0
# Processed by: cddbd v1.5.2PL0 Copyright (c) Steve Scherf et al.
# Submitted via: CD-Import v1.0
#
DISCID=3e042905
DTITLE=Tim and Puma Mimi - Kdm (Rare! Wird Am 31.3. Gelöscht)
DYEAR=10
DGENRE=
TTITLE0=Torianse
TTITLE1=Yamanote 2
TTITLE2=Triplettes De Belleville
TTITLE3=Mr. Scruff Vs. Puma Mimi - Mash Up
TTITLE4=Yamanote 1
EXTD=
EXTT0=
EXTT1=
EXTT2=
EXTT3=
EXTT4=
PLAYORDER=
